<svg preserveAspectRatio="none" width="100%" height="100%" overflow="visible" style="display: block;" viewBox="0 0 91.8479 24" fill="none" xmlns="http://www.w3.org/2000/svg">
<g id="logo">
<g id="probe.">
<path id="Vector" d="M90.1076 18.0435C89.1301 18.0435 88.3674 17.27 88.3674 16.3032C88.3674 15.3257 89.1301 14.563 90.1076 14.563C91.0744 14.563 91.8479 15.3257 91.8479 16.3032C91.8479 17.27 91.0744 18.0435 90.1076 18.0435Z" fill="var(--fill-0, #33312B)"/>
<path id="Vector_2" d="M81.9324 18.0972C78.409 18.0972 76.2713 15.8091 76.2713 12.1245V12.1138C76.2713 8.45068 78.4304 6.10889 81.8035 6.10889C85.1765 6.10889 87.2927 8.39697 87.2927 11.8774V12.8442H79.365C79.3972 14.6812 80.3963 15.7554 81.9968 15.7554C83.2859 15.7554 84.0701 15.0464 84.2957 14.4019L84.3172 14.3374H87.1961L87.1638 14.4556C86.8093 16.1528 85.2195 18.0972 81.9324 18.0972ZM81.8572 8.45068C80.5681 8.45068 79.6013 9.31006 79.3972 10.8677H84.2849C84.0916 9.27783 83.157 8.45068 81.8572 8.45068Z" fill="var(--fill-0, #33312B)"/>
<path id="Vector_3" d="M70.8242 18.0971C69.1699 18.0971 67.9023 17.2592 67.2793 15.895H67.2148V17.8608H64.0781V2.35982H67.2148V8.34322H67.2793C67.9131 6.94674 69.1914 6.10885 70.835 6.10885C73.7246 6.10885 75.5186 8.34322 75.5186 12.0922V12.103C75.5186 15.8413 73.7246 18.0971 70.8242 18.0971ZM69.7822 15.4975C71.3398 15.4975 72.3281 14.1977 72.3281 12.103V12.0922C72.3281 9.98678 71.3398 8.70846 69.7822 8.70846C68.2676 8.70846 67.2148 10.019 67.2148 12.0922V12.103C67.2148 14.187 68.2568 15.4975 69.7822 15.4975Z" fill="var(--fill-0, #33312B)"/>
<path id="Vector_4" d="M57.1162 18.0971C53.6143 18.0971 51.4121 15.852 51.4121 12.103V12.0815C51.4121 8.37545 53.668 6.10885 57.1055 6.10885C60.5537 6.10885 62.8203 8.35396 62.8203 12.0815V12.103C62.8203 15.8628 60.5967 18.0971 57.1162 18.0971ZM57.127 15.6372C58.6523 15.6372 59.6299 14.3481 59.6299 12.103V12.0815C59.6299 9.85787 58.6309 8.56881 57.1055 8.56881C55.5908 8.56881 54.6025 9.85787 54.6025 12.0815V12.103C54.6025 14.3588 55.5801 15.6372 57.127 15.6372Z" fill="var(--fill-0, #33312B)"/>
<path id="Vector_5" d="M44.623 17.8608V6.34518H47.7598V8.35396H47.8242C48.168 6.936 49.1025 6.10885 50.4453 6.10885C50.7891 6.10885 51.1113 6.16256 51.3477 6.22701V8.98775C51.0898 8.88033 50.6602 8.81588 50.209 8.81588C48.6621 8.81588 47.7598 9.73971 47.7598 11.4155V17.8608H44.623Z" fill="var(--fill-0, #33312B)"/>
<path id="Vector_6" d="M32 21.6206V6.34518H35.1367V8.35396H35.2119C35.835 6.95748 37.0918 6.10885 38.7246 6.10885C41.6465 6.10885 43.4297 8.34322 43.4297 12.0922V12.103C43.4297 15.8413 41.6465 18.0971 38.7676 18.0971C37.124 18.0971 35.8242 17.2592 35.2012 15.895H35.1367V21.6206H32ZM37.6934 15.4975C39.251 15.4975 40.2393 14.1977 40.2393 12.103V12.0922C40.2393 9.98678 39.251 8.70846 37.6934 8.70846C36.168 8.70846 35.126 10.019 35.126 12.103V12.1137C35.126 14.187 36.168 15.4975 37.6934 15.4975Z" fill="var(--fill-0, #33312B)"/>
</g>
<path id="Rectangle 3384 (Stroke)" d="M13.2927 23.0769V17.7314L12 16.4387L10.7073 17.7314V23.0769C10.7073 23.5867 10.2941 24 9.78425 24C9.27462 23.9998 8.86118 23.5866 8.86118 23.0769V19.5775L6.38672 22.052C6.02629 22.4123 5.44191 22.4123 5.08143 22.052C4.72097 21.6915 4.72101 21.1072 5.08143 20.7467L8.86118 16.966V15.1388H7.03395L3.25331 18.9186C2.89282 19.279 2.30848 19.279 1.94802 18.9186C1.58775 18.5581 1.58766 17.9737 1.94802 17.6133L4.42248 15.1388H0.923077C0.413396 15.1388 0.000195846 14.7254 0 14.2157C1.10039e-07 13.7059 0.413276 13.2927 0.923077 13.2927H6.26863L7.5613 12L6.26863 10.7073H0.923077C0.413276 10.7073 -1.65059e-07 10.2941 0 9.78425C0.000193268 9.27462 0.413395 8.86118 0.923077 8.86118H4.42248L1.94802 6.38672C1.58766 6.02629 1.58775 5.44191 1.94802 5.08143C2.30848 4.72097 2.89282 4.72101 3.25331 5.08143L7.03395 8.86118H8.86118V7.03305L5.08143 3.25331C4.72101 2.89282 4.72097 2.30848 5.08143 1.94802C5.44191 1.58775 6.02629 1.58766 6.38672 1.94802L8.86118 4.42248V0.923077C8.86118 0.413397 9.27462 0.000196798 9.78425 0C10.2941 1.65059e-07 10.7073 0.413276 10.7073 0.923077V6.26863L12 7.5613L13.2927 6.26863V0.923077C13.2927 0.413276 13.7059 0 14.2157 0C14.7254 0.00019453 15.1388 0.413396 15.1388 0.923077V4.42248L17.6133 1.94802C17.9737 1.58766 18.5581 1.58775 18.9186 1.94802C19.279 2.30848 19.279 2.89282 18.9186 3.25331L15.1388 7.03305V8.86118H16.966L20.7467 5.08143C21.1072 4.72101 21.6915 4.72097 22.052 5.08143C22.4123 5.44191 22.4123 6.02629 22.052 6.38672L19.5775 8.86118H23.0769C23.5866 8.86118 23.9998 9.27462 24 9.78425C24 10.2941 23.5867 10.7073 23.0769 10.7073H17.7314L16.4387 12L17.7314 13.2927H23.0769C23.5867 13.2927 24 13.7059 24 14.2157C23.9998 14.7254 23.5866 15.1388 23.0769 15.1388H19.5775L22.052 17.6133C22.4123 17.9737 22.4123 18.5581 22.052 18.9186C21.6915 19.279 21.1072 19.279 20.7467 18.9186L16.966 15.1388H15.1388V16.966L18.9186 20.7467C19.279 21.1072 19.279 21.6915 18.9186 22.052C18.5581 22.4123 17.9737 22.4123 17.6133 22.052L15.1388 19.5775V23.0769C15.1388 23.5866 14.7254 23.9998 14.2157 24C13.7059 24 13.2927 23.5867 13.2927 23.0769ZM12.6526 9.52013C12.4796 9.69308 12.2447 9.78966 12 9.78966C11.7553 9.78966 11.5204 9.69308 11.3474 9.52013L10.7073 8.87921V9.78425C10.7073 10.0291 10.61 10.2638 10.4369 10.4369C10.2638 10.61 10.0291 10.7073 9.78425 10.7073H8.88011L9.52013 11.3474C9.88027 11.7078 9.88027 12.2922 9.52013 12.6526L8.88011 13.2927H9.78425C10.2941 13.2927 10.7073 13.7059 10.7073 14.2157V15.1199L11.3474 14.4799L11.4177 14.4168C11.7801 14.1213 12.3148 14.1422 12.6526 14.4799L13.2927 15.1199V14.2157C13.2927 13.7059 13.7059 13.2927 14.2157 13.2927H15.1199L14.4799 12.6526C14.1197 12.2922 14.1197 11.7078 14.4799 11.3474L15.1199 10.7073H14.2157C13.7059 10.7073 13.2927 10.2941 13.2927 9.78425V8.87921L12.6526 9.52013Z" fill="var(--fill-0, #33312B)"/>
</g>
</svg>
